<svg id="Proyecto" xmlns="http://www.w3.org/2000/svg" xmlns:xlink="http://www.w3.org/1999/xlink" viewBox="0 0 1884.45 482.17"><defs><style>.cls-1{fill:#1e272e;}.cls-2{fill:url(#Degradado_sin_nombre_2);}</style><linearGradient id="Degradado_sin_nombre_2" x1="1682.7" y1="493.57" x2="1682.7" y2="11.4" gradientUnits="userSpaceOnUse"><stop offset="0"/><stop offset="1" stop-color="#a52323"/></linearGradient></defs><path id="Logo" class="cls-1" d="M1379.5,201.5c9.75-18.48,24.87-29.28,35-35h99l26-30h-726l-8,30h67a7.58,7.58,0,0,1,6,2,7.17,7.17,0,0,1,2,4l-30,114h-110l-48-49c.93,0,2.32,0,4,0,8.68-.16,35.91-1,61-19,8.74-6.27,16.9-11.48,22-22,1.87-3.85,6.72-13.86,3-24-1.82-5-5-8.08-8-11-2.53-2.47-6.67-5.92-18-11a156.61,156.61,0,0,0-22-8,220.46,220.46,0,0,0-32-6c-21.13-2-263.58-2.14-595,0a107.11,107.11,0,0,0-29,13,77.34,77.34,0,0,0-18,15,75.09,75.09,0,0,0-11,17,51.72,51.72,0,0,0-5,14c-.83,4.42-1.68,8.92,0,14,.56,1.71,1.7,4.34,7,10a96.75,96.75,0,0,0,15,13c44.68,22.87,61,30.9,64,32a10.46,10.46,0,0,1,2,1c.31.2,5.08,3.37,5,8-.05,2.91-2.27,5.25-4.19,7.2-1.34,1.36-4.69,4.8-6.81,4.8H21.5l-9,31c102.59-.28,143.4-.22,153,0,.37,0,1.06,0,2,0,12.11-.32,21.52-6.39,30-12,3-2,5-3.52,7-5,7.11-5.36,12.13-9.14,17-15,3.05-3.67,6.65-8.09,9-15a36.39,36.39,0,0,0,2-16,35.62,35.62,0,0,0-4-13c-2.79-5.19-6.45-8.71-20-18-15.09-10.35-20-13-20-13-10.72-6.21-25.2-14.42-43-24a6.56,6.56,0,0,1-3-2c-2.24-2.71-1.18-6.37-1-7,.88-3,3.17-4.69,5-6a17.92,17.92,0,0,1,7-3h139c-18.64,68-31.73,115.67-33,120-.05.17-.53,1.79-1,4-.72,3.37-1.25,5.83-1,8,.43,3.67,3,6.14,5,8,7.17,6.78,17.25,7.79,21,8l304,1,16-63c35.78,36.16,51.31,52.41,54,56a14.09,14.09,0,0,0,3,3,17,17,0,0,0,10,3h257l37-138a11.47,11.47,0,0,1,1-4c2.37-5.16,7.93-6.72,9-7h88l-33,122c-.26.94-.63,2.32-1,4-1,4.61-1.53,6.91-1,9,.59,2.35,2.17,3.66,5,6a35.19,35.19,0,0,0,14,7,36.39,36.39,0,0,0,10,1h428l-3-29h-90c-.46,0-1.15,0-2,0a24,24,0,0,1-18-10c-2.7-3.88-3.31-7.53-4-12a57.88,57.88,0,0,1,1-22C1373.8,219,1376.46,207.27,1379.5,201.5Zm-879,83h-145a19.18,19.18,0,0,1-3,0c-1.77-.14-2.93-.25-4-1a5.27,5.27,0,0,1-2-3l11-37h119l9-33h-119q4-17,8-34a13.31,13.31,0,0,1,2-4,16.77,16.77,0,0,1,7-5c5.25-2,65.63-2,148,0Zm184-92c-2,4.14-4.73,6.39-8,9-2.84,2.26-11.07,8.65-23,9-.89,0-1.53,0-2,0-6.69-.15-17.53-.24-36,0l12-43,35-1c13.27,1.31,23,8.36,24,16C687.09,187,684.75,192,684.5,192.5Zm635-22c-5.92,4.56-15.33,11.81-24,22-4.53,5.33-10.34,12.27-15,23a67.29,67.29,0,0,0-6,23,56.47,56.47,0,0,0,2,21,55.43,55.43,0,0,0,16,25H1124.33a19.18,19.18,0,0,1-3,0c-1.77-.14-2.93-.25-4-1a5.37,5.37,0,0,1-2-3l11-37h119l9-33h-119q4-17,8-34a13.31,13.31,0,0,1,2-4,16.77,16.77,0,0,1,7-5c5.25-2,65.63-2,148,0h23.17C1322.53,168.21,1321.14,169.23,1319.5,170.5Z" transform="translate(-8 -11.4)"/><g id="Slogan"><text x="-8" y="-11.4"/><path class="cls-1" d="M39,392.91a2.29,2.29,0,0,1,1,1c.73,1.48-.43,3.95-3,6H12l-4,11c23.12-.14,33.13-.12,35,0,.11,0,.49,0,1,0a9.72,9.72,0,0,0,5-2,45.81,45.81,0,0,0,6-5c2.67-2.74,4-4.11,5-6a19.07,19.07,0,0,0,2-9,15.28,15.28,0,0,0-1-7,13,13,0,0,0-4-5l-15-13a3.14,3.14,0,0,1-1-1c-1.14-1.89-.11-5.25,2-6a3.09,3.09,0,0,1,2,0H70l4-11H35a36.68,36.68,0,0,0-8,6,27.66,27.66,0,0,0-6,8,26,26,0,0,0-2,6c-.66,3.07-1.29,6,0,9a10,10,0,0,0,2,3l18,15" transform="translate(-8 -11.4)"/><path class="cls-1" d="M1428.78,392.91a2.29,2.29,0,0,1,1,1c.73,1.48-.43,3.95-3,6h-25l-4,11c23.12-.14,33.13-.12,35,0,.11,0,.49,0,1,0a9.72,9.72,0,0,0,5-2,45.81,45.81,0,0,0,6-5c2.67-2.74,4-4.11,5-6a19.07,19.07,0,0,0,2-9,15.28,15.28,0,0,0-1-7,12.86,12.86,0,0,0-4-5l-15-13a3.14,3.14,0,0,1-1-1c-1.14-1.89-.11-5.25,2-6a3.09,3.09,0,0,1,2,0h25l4-11h-39a36.68,36.68,0,0,0-8,6,27.66,27.66,0,0,0-6,8,26,26,0,0,0-2,6c-.66,3.07-1.29,6,0,9a10,10,0,0,0,2,3l18,15" transform="translate(-8 -11.4)"/><polygon class="cls-1" points="350 334.52 332 399.52 353 399.52 370 334.52 350 334.52"/><polygon class="cls-1" points="257.73 334.52 239.73 399.52 260.73 399.52 277.73 334.52 257.73 334.52"/><polygon class="cls-1" points="720.88 334.52 702.88 399.52 723.88 399.52 740.88 334.52 720.88 334.52"/><path class="cls-1" d="M130,345.92H90c-.55.25-1.24.58-2,1a25.37,25.37,0,0,0-3,2,15.22,15.22,0,0,0-4,4,13.75,13.75,0,0,0-1,2c-1.62,4.13-10.31,40.15-11,43a15.25,15.25,0,0,0-1,4,9.15,9.15,0,0,0,0,3,9,9,0,0,0,2,4,5.7,5.7,0,0,0,3,2h40l3-11H88l3-16h30l2-11H94l4-16h29Z" transform="translate(-8 -11.4)"/><path class="cls-1" d="M590.94,345.92h-40c-.55.25-1.24.58-2,1a25.37,25.37,0,0,0-3,2,15.22,15.22,0,0,0-4,4,13.75,13.75,0,0,0-1,2c-1.62,4.13-10.31,40.15-11,43a15.25,15.25,0,0,0-1,4,9.15,9.15,0,0,0,0,3,9,9,0,0,0,2,4,5.7,5.7,0,0,0,3,2h40l3-11h-28l3-16h30l2-11h-29l4-16h29Z" transform="translate(-8 -11.4)"/><polygon class="cls-1" points="556 328.52 583 320.52 583 328.52 556 328.52"/><path class="cls-1" d="M1277.91,345.92h-40c-.55.25-1.24.58-2,1a25.37,25.37,0,0,0-3,2,15.22,15.22,0,0,0-4,4,13.75,13.75,0,0,0-1,2c-1.61,4.13-10.31,40.15-11,43a16.09,16.09,0,0,0-1,4,9.43,9.43,0,0,0,0,3,9.12,9.12,0,0,0,2,4,5.7,5.7,0,0,0,3,2h40l3-11h-28l3-16h30l2-11h-29l4-16h29Z" transform="translate(-8 -11.4)"/><polygon class="cls-1" points="473 335.52 470 346.52 488 346.52 474 399.52 494 399.52 508 346.52 526 346.52 529 335.52 473 335.52"/><path class="cls-1" d="M195,358.92a15.91,15.91,0,0,0-6-9,19.15,19.15,0,0,0-9-4H140l-18,65h23l5-22h2l12,22h25l-18-30c.65,0,1.31,0,2,0a27.67,27.67,0,0,0,10-2,20.29,20.29,0,0,0,10-9C193.92,368.18,196.1,364.05,195,358.92Zm-24,10a14,14,0,0,1-4,3,19.33,19.33,0,0,1-2,1H154l5-16h10a8.44,8.44,0,0,1,4,6A8.25,8.25,0,0,1,171,368.92Z" transform="translate(-8 -11.4)"/><path class="cls-1" d="M1341.85,358.92a16,16,0,0,0-6-9,19.15,19.15,0,0,0-9-4h-40l-18,65h23l5-22h2l12,22h25l-18-30c.64,0,1.31,0,2,0a27.71,27.71,0,0,0,10-2,20.37,20.37,0,0,0,10-9C1340.76,368.18,1342.94,364.05,1341.85,358.92Zm-24,10a14.16,14.16,0,0,1-4,3,20.39,20.39,0,0,1-2,1h-11l5-16h10a8.47,8.47,0,0,1,4,6A8.29,8.29,0,0,1,1317.85,368.92Z" transform="translate(-8 -11.4)"/><path class="cls-1" d="M201,345.65l4,57a15.31,15.31,0,0,0,1,2,12.9,12.9,0,0,0,5,5,12.12,12.12,0,0,0,8,1,13,13,0,0,0,7-4l40-61H254l-28,45-3-45Z" transform="translate(-8 -11.4)"/><path class="cls-1" d="M349,346.92H320a21.09,21.09,0,0,0-3,0c-6.55.48-11.14,4-15,7a52.81,52.81,0,0,0-11,12,42.17,42.17,0,0,0-6,11,36.31,36.31,0,0,0-2,10,25.8,25.8,0,0,0,1,10,20.56,20.56,0,0,0,8,11,19.33,19.33,0,0,0,8,3h32l3-10H307a5.07,5.07,0,0,1-2-1,6.17,6.17,0,0,1-2-4c-1.11-6.58,1-14,1-14,2.07-7.27,3.26-11.44,7-16,5.59-6.82,8.58-7.9,10-8,.42,0,.77,0,1,0h24Z" transform="translate(-8 -11.4)"/><path class="cls-1" d="M654.24,346.92h-29a21.08,21.08,0,0,0-3,0c-6.54.48-11.14,4-15,7a52.81,52.81,0,0,0-11,12,42.17,42.17,0,0,0-6,11,36.31,36.31,0,0,0-2,10,25.8,25.8,0,0,0,1,10,20.56,20.56,0,0,0,8,11,19.33,19.33,0,0,0,8,3h32l3-10h-28a5.07,5.07,0,0,1-2-1,6.22,6.22,0,0,1-2-4c-1.11-6.58,1-14,1-14,2.08-7.27,3.26-11.44,7-16,5.59-6.82,8.58-7.9,10-8,.42,0,.77,0,1,0h24Z" transform="translate(-8 -11.4)"/><path class="cls-1" d="M812.09,346.92h-29a21.07,21.07,0,0,0-3,0c-6.54.48-11.14,4-15,7a52.81,52.81,0,0,0-11,12,42.17,42.17,0,0,0-6,11,36.31,36.31,0,0,0-2,10,25.8,25.8,0,0,0,1,10,20.56,20.56,0,0,0,8,11,19.33,19.33,0,0,0,8,3h32l3-10h-28a5.07,5.07,0,0,1-2-1,6.22,6.22,0,0,1-2-4c-1.11-6.58,1-14,1-14,2.08-7.27,3.26-11.44,7-16,5.6-6.82,8.59-7.9,10-8,.42,0,.77,0,1,0h24Z" transform="translate(-8 -11.4)"/><path class="cls-1" d="M1058.44,346.92h-29a21.09,21.09,0,0,0-3,0c-6.54.48-11.14,4-15,7a52.81,52.81,0,0,0-11,12,42.17,42.17,0,0,0-6,11,36.31,36.31,0,0,0-2,10,25.8,25.8,0,0,0,1,10,20.56,20.56,0,0,0,8,11,19.33,19.33,0,0,0,8,3h32l3-10h-28a5.07,5.07,0,0,1-2-1,6.22,6.22,0,0,1-2-4c-1.11-6.58,1-14,1-14,2.07-7.27,3.26-11.44,7-16,5.59-6.82,8.58-7.9,10-8,.42,0,.77,0,1,0h24Z" transform="translate(-8 -11.4)"/><path class="cls-1" d="M441,359.91c-3.13-7.73-10.21-11.14-12-12-12.79-6.15-26.16.58-29,2a47.83,47.83,0,0,0-10,7,50.12,50.12,0,0,0-8,9,39.12,39.12,0,0,0-6,13,29.46,29.46,0,0,0-1,10,24.12,24.12,0,0,0,4,12,22.73,22.73,0,0,0,6,6c6.06,4.12,12.44,4,16,4a37.85,37.85,0,0,0,18-5,45.23,45.23,0,0,0,16-15,43.94,43.94,0,0,0,6-14C442.19,371.67,443.47,366,441,359.91Zm-19,8c-2,9.29-3.18,15.09-8,23-5.05,8.3-7.94,8.89-9,9a9,9,0,0,1-5-1,9.64,9.64,0,0,1-4-4c-1.35-2.67-.87-5.42,0-9,.74-3.05,2.54-9.92,9-23a12.85,12.85,0,0,1,4-5,8.68,8.68,0,0,1,6-2c3.76.44,6.24,4.13,7,7A10.38,10.38,0,0,1,422,367.91Z" transform="translate(-8 -11.4)"/><path class="cls-1" d="M874.4,359.91c-3.13-7.73-10.22-11.14-12-12-12.8-6.15-26.16.58-29,2a47.55,47.55,0,0,0-10,7,49.68,49.68,0,0,0-8,9,38.92,38.92,0,0,0-6,13,29,29,0,0,0-1,10,24,24,0,0,0,4,12,22.73,22.73,0,0,0,6,6c6.06,4.12,12.44,4,16,4a37.89,37.89,0,0,0,18-5,45.31,45.31,0,0,0,16-15,44.44,44.44,0,0,0,6-14C875.58,371.67,876.87,366,874.4,359.91Zm-19,8c-2,9.29-3.18,15.09-8,23-5,8.3-7.94,8.89-9,9a9,9,0,0,1-5-1,9.59,9.59,0,0,1-4-4c-1.36-2.67-.87-5.42,0-9,.74-3.05,2.54-9.92,9-23a12.85,12.85,0,0,1,4-5,8.66,8.66,0,0,1,6-2c3.76.44,6.23,4.13,7,7A10.5,10.5,0,0,1,855.4,367.91Z" transform="translate(-8 -11.4)"/><path class="cls-1" d="M645,410.92l16-55a13.69,13.69,0,0,1,1-3,15.44,15.44,0,0,1,7-7h9a8.22,8.22,0,0,1,2,1,8.1,8.1,0,0,1,2,2l13,26a8,8,0,0,0,1,2c.42.61.65.94,1,1,.64.11,1.43-.72,2-2l7-30h14l-16,56a10.18,10.18,0,0,1-1,2c-3.35,5.29-10.17,5.94-11,6-1.64.14-5.63.53-9-2a10.36,10.36,0,0,1-2-2l-11-22c-.28-.63-.61-1.3-1-2-1.28-2.29-1.53-3-2-3-.21,0-.56.14-1,1l-8,31Z" transform="translate(-8 -11.4)"/><path class="cls-1" d="M958,410.92l-5-59a14.78,14.78,0,0,0-9-5c-6.37-.76-11.39,3.6-13,5a20.64,20.64,0,0,0-2,2l-36,57h12l4-7h27v7Zm-42-18,15-26a1.92,1.92,0,0,1,2-1c.78.28.93,1.48,1,2a4.1,4.1,0,0,1,0,1l1,24Z" transform="translate(-8 -11.4)"/><path class="cls-1" d="M1107.56,410.92l-5-59a14.75,14.75,0,0,0-9-5c-6.36-.76-11.38,3.6-13,5a21.86,21.86,0,0,0-2,2l-36,57h12l4-7h27v7Zm-42-18,15-26a1.92,1.92,0,0,1,2-1c.78.28.93,1.48,1,2a3.65,3.65,0,0,1,0,1l1,24Z" transform="translate(-8 -11.4)"/><path class="cls-1" d="M1396.72,410.92l-5-59a14.78,14.78,0,0,0-9-5c-6.37-.76-11.39,3.6-13,5a20.64,20.64,0,0,0-2,2l-36,57h12l4-7h27v7Zm-42-18,15-26a1.92,1.92,0,0,1,2-1c.78.28.93,1.48,1,2a4.1,4.1,0,0,1,0,1l1,24Z" transform="translate(-8 -11.4)"/><path class="cls-1" d="M1145,345.92h-19l-14,51a18.26,18.26,0,0,0-1,3c-.48,2.07-1.06,4.56,0,7a8.35,8.35,0,0,0,4,4h26l1-11h-11Z" transform="translate(-8 -11.4)"/><path class="cls-1" d="M1216,368.9c-1-9.95-7.87-16-9-17a26.26,26.26,0,0,0-9-5h-36l-17,64h34c.47,0,1.16,0,2,0,7.52-.35,12.9-4.64,17-8a51.26,51.26,0,0,0,13-16C1214.08,380.9,1216.68,375.86,1216,368.9Zm-21,3a46.34,46.34,0,0,1-3,12,57.62,57.62,0,0,1-5,10c-2.51,4.32-4.39,6.74-7,7a5.56,5.56,0,0,1-1,0h-9l12-42c1.31-.55,6.61-2.62,10,0a5.83,5.83,0,0,1,1,1C1193.86,360.94,1195.84,363.86,1195,371.9Z" transform="translate(-8 -11.4)"/></g><path class="cls-2" d="M1725,81.4a171.5,171.5,0,0,0-56,8c-21.44,6.85-35.92,16.26-54,28a321.58,321.58,0,0,0-46,36c-11.23,10.65-24.18,23.09-36,42a236,236,0,0,0-12,22,192.4,192.4,0,0,0-11,27,119.26,119.26,0,0,0-4,15c-1.51,8-1.73,14.43-2,23-.1,3.08-.2,8.53,0,16,.3,11,.68,24.87,4,42,2,10.27,2.64,9.36,4,18,1.49,9.47,1.7,16.88,2,29,.27,11.08.41,16.62,0,23-.65,10-1.22,18.89-5,30a79.07,79.07,0,0,1-11,22c-1.93,2.65-1.82,2.11-8,10-7.18,9.17-7.42,10-11,14-4.21,4.68-6.42,6.34-6,7,.31.49,2,.34,16-6,7.91-3.59,14-6.55,17-8,10-4.9,15.07-7.34,18-9a176.17,176.17,0,0,0,18-12c11.6-8.56,20.21-14.91,30-25a171.56,171.56,0,0,0,22-28c10.73-17.08,15.72-32,19-42,4.16-12.66,2.56-11.59,9-33,5.6-18.6,9.48-28.29,11-32,5-12,7.42-18.08,12-25a104.49,104.49,0,0,1,27-27c13.17-9.2,29.42-16.31,31-14,.62.9-1.25,3.27-5,8-4.54,5.73-7.61,8.28-11,12-4.18,4.58-6.53,8.38-10,14a99.65,99.65,0,0,0-10,20,116.45,116.45,0,0,0-4,15,137.31,137.31,0,0,0-3,17c-.63,6.29-.34,9.84,0,19,.67,18.12,1,27.19,0,32-1.91,9.17-5.64,15.54-10,23a112.92,112.92,0,0,1-17,22c-2.16,2.18-4.32,4.2-15,13-8.3,6.84-15.46,12.59-21,17,2.17,0,5.27.07,9,0a277.68,277.68,0,0,0,39-4c54.21-9.8,91-32,91-32,15.75-9.51,32-19.51,47-39a132.32,132.32,0,0,0,24-48c3.7-14.35,4.8-29.54,6-46s.78-24.38,5-37a100,100,0,0,1,12-24,121.47,121.47,0,0,1,28-30c-3.8.61-9,1.55-15,3a157.94,157.94,0,0,0-28,9,142.77,142.77,0,0,0-25,14c-6.39,4.48-12.45,8.74-19,16-8,8.85-10.91,15.76-13,15s-1.49-8.31,0-14a43.31,43.31,0,0,1,11-19c13.94-14.34,28.81-24.24,41-33,13.57-9.76,22.83-16.41,34-27,8.87-8.4,18.7-17.86,28-33a135.84,135.84,0,0,0,15-34c3.65-13.13,4.2-23.35,5-38a295.27,295.27,0,0,0,0-32c-1.17,1.83-2.92,4.6-5,8-7.53,12.3-8.92,15.78-12,20-4.66,6.39-9.6,9.58-18,15-20.55,13.26-41.8,18.92-51,21-6.52,1.47-13,2.51-23,6-1.44.5-5.4,1.91-17,7-11,4.81-16.5,7.24-24,11a338.74,338.74,0,0,0-30,17c-9.33,5.94-15.91,10.78-23,16-8.33,6.13-14.7,10.82-23,18-7.06,6.1-11.61,10.64-20,19s-9.93,10.42-11,12c-1.67,2.48-4.08,6.49-9,14-2.89,4.41-4.19,6.28-5,6-1.48-.51-.22-7.75,0-9a56.23,56.23,0,0,1,5-15,155.07,155.07,0,0,1,10-18,151.08,151.08,0,0,1,12-16c4.19-4.87,8.19-8.65,16-16,9.36-8.81,14-13.22,20-18a245.62,245.62,0,0,1,21-15c6.52-4.18,12.34-7.49,17-10Z" transform="translate(-8 -11.4)"/></svg>