<svg id="Proyecto" xmlns="http://www.w3.org/2000/svg" viewBox="0 0 1884.45 482.17"><defs><style>.cls-1{fill:#fff;}</style></defs><path id="Logo" class="cls-1" d="M1378.61,1301.05c9.75-18.48,24.87-29.28,35-35h99l26-30h-726l-8,30h67a7.58,7.58,0,0,1,6,2,7.21,7.21,0,0,1,2,4l-30,114h-110l-48-49c.93,0,2.32,0,4,0,8.68-.16,35.91-1,61-19,8.74-6.27,16.89-11.48,22-22,1.87-3.85,6.72-13.86,3-24-1.82-5-5-8.08-8-11-2.53-2.47-6.67-5.92-18-11a156.61,156.61,0,0,0-22-8,220.46,220.46,0,0,0-32-6c-21.13-2-263.58-2.15-595,0a107.11,107.11,0,0,0-29,13,77.13,77.13,0,0,0-18,15,75.09,75.09,0,0,0-11,17,51.72,51.72,0,0,0-5,14c-.84,4.42-1.68,8.92,0,14,.56,1.7,1.7,4.34,7,10a96.75,96.75,0,0,0,15,13c44.68,22.87,61,30.9,64,32a10.46,10.46,0,0,1,2,1c.31.2,5.08,3.37,5,8-.05,2.91-2.27,5.25-4.19,7.2-1.34,1.36-4.69,4.8-6.81,4.8h-105l-9,31c102.59-.28,143.4-.22,153,0,.37,0,1.06,0,2,0,12.11-.32,21.51-6.39,30-12,3-2,5-3.52,7-5,7.11-5.36,12.13-9.14,17-15,3-3.67,6.65-8.09,9-15a36.39,36.39,0,0,0,2-16,35.83,35.83,0,0,0-4-13c-2.79-5.19-6.45-8.71-20-18-15.1-10.35-20-13-20-13-10.72-6.21-25.2-14.42-43-24a6.51,6.51,0,0,1-3-2c-2.24-2.71-1.18-6.37-1-7,.88-3,3.17-4.69,5-6a17.92,17.92,0,0,1,7-3h139c-18.64,68-31.73,115.67-33,120-.05.17-.53,1.79-1,4-.73,3.37-1.25,5.83-1,8,.42,3.67,3,6.14,5,8,7.17,6.78,17.25,7.79,21,8l304,1,16-63c35.78,36.16,51.31,52.41,54,56a14.09,14.09,0,0,0,3,3,17,17,0,0,0,10,3h257l37-138a11.47,11.47,0,0,1,1-4c2.37-5.16,7.93-6.72,9-7h88l-33,122c-.26.94-.63,2.31-1,4-1,4.61-1.53,6.91-1,9,.59,2.35,2.17,3.66,5,6a35.19,35.19,0,0,0,14,7,36.39,36.39,0,0,0,10,1h428l-3-29h-90c-.46,0-1.15,0-2,0a24,24,0,0,1-18-10c-2.7-3.88-3.31-7.54-4-12a57.88,57.88,0,0,1,1-22C1372.91,1318.56,1375.57,1306.82,1378.61,1301.05Zm-879,83h-145a19.23,19.23,0,0,1-3,0c-1.77-.14-2.93-.25-4-1a5.27,5.27,0,0,1-2-3l11-37h119l9-33h-119q4-17,8-34a13.08,13.08,0,0,1,2-4,16.68,16.68,0,0,1,7-5c5.24-2,65.63-2,148,0Zm184-92c-2,4.13-4.74,6.39-8,9-2.84,2.26-11.07,8.65-23,9-.89,0-1.53,0-2,0-6.69-.16-17.53-.24-36,0l12-43,35-1c13.27,1.31,23,8.36,24,16C686.19,1286.5,683.86,1291.52,683.61,1292.05Zm635-22c-5.92,4.56-15.33,11.81-24,22-4.53,5.33-10.35,12.27-15,23a67.05,67.05,0,0,0-6,23,56.47,56.47,0,0,0,2,21,55.43,55.43,0,0,0,16,25H1123.44a19.18,19.18,0,0,1-3,0c-1.77-.14-2.93-.25-4-1a5.27,5.27,0,0,1-2-3l11-37h119l9-33h-119q4-17,8-34a13.31,13.31,0,0,1,2-4,16.77,16.77,0,0,1,7-5c5.25-2,65.63-2,148,0h23.17C1321.64,1267.76,1320.25,1268.78,1318.61,1270.05Z" transform="translate(-7.11 -1110.95)"/><g id="Slogan"><text x="-7.11" y="-1110.95"/><path class="cls-1" d="M38.11,1492.46a2.34,2.34,0,0,1,1,1c.73,1.48-.43,4-3,6h-25l-4,11c23.12-.14,33.13-.12,35,0,.1,0,.49,0,1,0a9.72,9.72,0,0,0,5-2,45.81,45.81,0,0,0,6-5c2.67-2.74,4-4.11,5-6a19.07,19.07,0,0,0,2-9c0-2.34.11-4.5-1-7a13,13,0,0,0-4-5l-15-13a3,3,0,0,1-1-1c-1.14-1.89-.11-5.25,2-6a3.09,3.09,0,0,1,2,0h25l4-11h-39a36.36,36.36,0,0,0-8,6,27.52,27.52,0,0,0-6,8,25,25,0,0,0-2,6c-.66,3.07-1.29,6,0,9a10,10,0,0,0,2,3l18,15" transform="translate(-7.11 -1110.95)"/><path class="cls-1" d="M1427.89,1492.46a2.29,2.29,0,0,1,1,1c.73,1.48-.43,4-3,6h-25l-4,11c23.12-.14,33.13-.12,35,0,.11,0,.49,0,1,0a9.72,9.72,0,0,0,5-2,45.81,45.81,0,0,0,6-5c2.67-2.74,4-4.11,5-6a19.07,19.07,0,0,0,2-9c0-2.34.11-4.5-1-7a13,13,0,0,0-4-5l-15-13a3.14,3.14,0,0,1-1-1c-1.14-1.89-.11-5.25,2-6a3.09,3.09,0,0,1,2,0h25l4-11h-39a36.36,36.36,0,0,0-8,6,27.52,27.52,0,0,0-6,8,26,26,0,0,0-2,6c-.66,3.07-1.29,6,0,9a10,10,0,0,0,2,3l18,15" transform="translate(-7.11 -1110.95)"/><polygon class="cls-1" points="350 334.52 332 399.52 353 399.52 370 334.52 350 334.52"/><polygon class="cls-1" points="257.73 334.52 239.73 399.52 260.73 399.52 277.73 334.52 257.73 334.52"/><polygon class="cls-1" points="720.88 334.52 702.88 399.52 723.88 399.52 740.88 334.52 720.88 334.52"/><path class="cls-1" d="M129.11,1445.47h-40c-.56.25-1.24.58-2,1a25.37,25.37,0,0,0-3,2,15.22,15.22,0,0,0-4,4,13.75,13.75,0,0,0-1,2c-1.62,4.13-10.31,40.15-11,43a15.25,15.25,0,0,0-1,4,9.15,9.15,0,0,0,0,3,9,9,0,0,0,2,4,5.22,5.22,0,0,0,1,1,5.51,5.51,0,0,0,2,1h40l3-11h-28l3-16h30l2-11h-29l4-16h29Z" transform="translate(-7.11 -1110.95)"/><path class="cls-1" d="M590.05,1445.47h-40c-.56.25-1.24.58-2,1a25.37,25.37,0,0,0-3,2,15.22,15.22,0,0,0-4,4,13.75,13.75,0,0,0-1,2c-1.62,4.13-10.31,40.15-11,43a15.25,15.25,0,0,0-1,4,9.15,9.15,0,0,0,0,3,9,9,0,0,0,2,4,5.22,5.22,0,0,0,1,1,5.51,5.51,0,0,0,2,1h40l3-11h-28l3-16h30l2-11h-29l4-16h29Z" transform="translate(-7.11 -1110.95)"/><polygon class="cls-1" points="556 328.52 583 320.52 583 328.52 556 328.52"/><path class="cls-1" d="M1277,1445.47h-40c-.55.25-1.24.58-2,1a25.37,25.37,0,0,0-3,2,15.22,15.22,0,0,0-4,4,13.75,13.75,0,0,0-1,2c-1.61,4.13-10.31,40.15-11,43a16.09,16.09,0,0,0-1,4,9.43,9.43,0,0,0,0,3,9.12,9.12,0,0,0,2,4,5.7,5.7,0,0,0,3,2h40l3-11h-28l3-16h30l2-11h-29l4-16h29Z" transform="translate(-7.11 -1110.95)"/><polygon class="cls-1" points="473 335.52 470 346.52 488 346.52 474 399.52 494 399.52 508 346.52 526 346.52 529 335.52 473 335.52"/><path class="cls-1" d="M194.11,1458.47a16,16,0,0,0-6-9,19.15,19.15,0,0,0-9-4h-40l-18,65h23l5-22h2l12,22h25l-18-30c.65,0,1.31,0,2,0a27.67,27.67,0,0,0,10-2,20.33,20.33,0,0,0,10-9C193,1467.73,195.21,1463.6,194.11,1458.47Zm-24,10a14.16,14.16,0,0,1-4,3,20.39,20.39,0,0,1-2,1h-11l5-16h10a8.44,8.44,0,0,1,4,6A8.25,8.25,0,0,1,170.11,1468.47Z" transform="translate(-7.11 -1110.95)"/><path class="cls-1" d="M1341,1458.47a15.86,15.86,0,0,0-6-9,19.07,19.07,0,0,0-9-4h-40l-18,65h23l5-22h2l12,22h25l-18-30c.65,0,1.32,0,2,0a27.63,27.63,0,0,0,10-2,20.29,20.29,0,0,0,10-9C1339.87,1467.73,1342.05,1463.6,1341,1458.47Zm-24,10a13.89,13.89,0,0,1-4,3,18.38,18.38,0,0,1-2,1h-11l5-16h10a8.41,8.41,0,0,1,4,6A8.25,8.25,0,0,1,1317,1468.47Z" transform="translate(-7.11 -1110.95)"/><path class="cls-1" d="M200.11,1445.2l4,57a15.31,15.31,0,0,0,1,2,12.83,12.83,0,0,0,5,5,12.12,12.12,0,0,0,8,1,13.06,13.06,0,0,0,7-4l40-61h-12l-28,45-3-45Z" transform="translate(-7.11 -1110.95)"/><path class="cls-1" d="M348.11,1446.47h-29a21.09,21.09,0,0,0-3,0c-6.55.48-11.14,4-15,7a52.81,52.81,0,0,0-11,12,41.44,41.44,0,0,0-6,11,36.31,36.31,0,0,0-2,10,25.8,25.8,0,0,0,1,10,20.51,20.51,0,0,0,8,11,19.28,19.28,0,0,0,8,3h32l3-10h-28a5.07,5.07,0,0,1-2-1,6.17,6.17,0,0,1-2-4c-1.12-6.58,1-14,1-14,2.07-7.27,3.26-11.44,7-16,5.59-6.82,8.58-7.9,10-8,.42,0,.76,0,1,0h24Z" transform="translate(-7.11 -1110.95)"/><path class="cls-1" d="M653.35,1446.47h-29a21.09,21.09,0,0,0-3,0c-6.54.48-11.14,4-15,7a52.81,52.81,0,0,0-11,12,42,42,0,0,0-6,11,36.31,36.31,0,0,0-2,10,25.8,25.8,0,0,0,1,10,20.56,20.56,0,0,0,8,11,19.33,19.33,0,0,0,8,3h32l3-10h-28a5.07,5.07,0,0,1-2-1,6.22,6.22,0,0,1-2-4c-1.11-6.58,1-14,1-14,2.07-7.27,3.26-11.44,7-16,5.59-6.82,8.58-7.9,10-8,.42,0,.77,0,1,0h24Z" transform="translate(-7.11 -1110.95)"/><path class="cls-1" d="M811.2,1446.47h-29a21.08,21.08,0,0,0-3,0c-6.54.48-11.14,4-15,7a52.81,52.81,0,0,0-11,12,42,42,0,0,0-6,11,36.31,36.31,0,0,0-2,10,25.8,25.8,0,0,0,1,10,20.56,20.56,0,0,0,8,11,19.33,19.33,0,0,0,8,3h32l3-10h-28a5.07,5.07,0,0,1-2-1,6.22,6.22,0,0,1-2-4c-1.11-6.58,1-14,1-14,2.08-7.27,3.26-11.44,7-16,5.59-6.82,8.58-7.9,10-8,.42,0,.77,0,1,0h24Z" transform="translate(-7.11 -1110.95)"/><path class="cls-1" d="M1057.55,1446.47h-29a21.09,21.09,0,0,0-3,0c-6.55.48-11.14,4-15,7a52.81,52.81,0,0,0-11,12,42,42,0,0,0-6,11,36.31,36.31,0,0,0-2,10,25.8,25.8,0,0,0,1,10,20.56,20.56,0,0,0,8,11,19.33,19.33,0,0,0,8,3h32l3-10h-28a5.07,5.07,0,0,1-2-1,6.17,6.17,0,0,1-2-4c-1.11-6.58,1-14,1-14,2.07-7.27,3.26-11.44,7-16,5.59-6.82,8.58-7.9,10-8,.42,0,.77,0,1,0h24Z" transform="translate(-7.11 -1110.95)"/><path class="cls-1" d="M440.11,1459.46c-3.13-7.73-10.22-11.14-12-12-12.79-6.15-26.16.58-29,2a47.55,47.55,0,0,0-10,7,50.12,50.12,0,0,0-8,9,39.12,39.12,0,0,0-6,13,29.21,29.21,0,0,0-1,10,24.12,24.12,0,0,0,4,12,22.73,22.73,0,0,0,6,6c6.06,4.12,12.44,4,16,4a37.85,37.85,0,0,0,18-5,45.23,45.23,0,0,0,16-15,43.94,43.94,0,0,0,6-14C441.3,1471.22,442.58,1465.57,440.11,1459.46Zm-19,8c-2,9.29-3.18,15.09-8,23-5.05,8.3-7.94,8.89-9,9a9.12,9.12,0,0,1-5-1,9.71,9.71,0,0,1-4-4c-1.35-2.67-.87-5.42,0-9,.74-3,2.54-9.92,9-23a12.85,12.85,0,0,1,4-5,8.68,8.68,0,0,1,6-2c3.76.44,6.24,4.13,7,7A10.5,10.5,0,0,1,421.11,1467.46Z" transform="translate(-7.11 -1110.95)"/><path class="cls-1" d="M873.51,1459.46c-3.13-7.73-10.22-11.14-12-12-12.8-6.15-26.16.58-29,2a47.55,47.55,0,0,0-10,7,49.68,49.68,0,0,0-8,9,38.92,38.92,0,0,0-6,13,29,29,0,0,0-1,10,24,24,0,0,0,4,12,22.73,22.73,0,0,0,6,6c6,4.12,12.43,4,16,4a37.89,37.89,0,0,0,18-5,45.31,45.31,0,0,0,16-15,44.44,44.44,0,0,0,6-14C874.69,1471.22,876,1465.57,873.51,1459.46Zm-19,8c-2,9.29-3.19,15.09-8,23-5,8.3-8,8.89-9,9a9.11,9.11,0,0,1-5-1,9.66,9.66,0,0,1-4-4c-1.36-2.67-.87-5.42,0-9,.74-3,2.54-9.92,9-23a12.85,12.85,0,0,1,4-5,8.66,8.66,0,0,1,6-2c3.76.44,6.23,4.13,7,7A10.5,10.5,0,0,1,854.51,1467.46Z" transform="translate(-7.11 -1110.95)"/><path class="cls-1" d="M644.11,1510.47l16-55a13.69,13.69,0,0,1,1-3,15.39,15.39,0,0,1,7-7h9a8.22,8.22,0,0,1,2,1,8.1,8.1,0,0,1,2,2l13,26a8,8,0,0,0,1,2c.41.61.65.94,1,1,.64.11,1.43-.72,2-2l7-30h14l-16,56a10.78,10.78,0,0,1-1,2c-3.35,5.29-10.18,5.94-11,6-1.64.13-5.63.53-9-2a10.08,10.08,0,0,1-2-2l-11-22c-.28-.63-.61-1.3-1-2-1.29-2.29-1.53-3-2-3-.21,0-.57.14-1,1l-8,31Z" transform="translate(-7.11 -1110.95)"/><path class="cls-1" d="M957.11,1510.47l-5-59a14.78,14.78,0,0,0-9-5c-6.37-.76-11.39,3.6-13,5a20.64,20.64,0,0,0-2,2l-36,57h12l4-7h27v7Zm-42-18,15-26a1.92,1.92,0,0,1,2-1c.77.28.93,1.47,1,2a4.1,4.1,0,0,1,0,1l1,24Z" transform="translate(-7.11 -1110.95)"/><path class="cls-1" d="M1106.67,1510.47l-5-59a14.75,14.75,0,0,0-9-5c-6.36-.76-11.38,3.6-13,5a21.86,21.86,0,0,0-2,2l-36,57h12l4-7h27v7Zm-42-18,15-26a1.92,1.92,0,0,1,2-1c.78.28.93,1.47,1,2a3.65,3.65,0,0,1,0,1l1,24Z" transform="translate(-7.11 -1110.95)"/><path class="cls-1" d="M1395.83,1510.47l-5-59a14.78,14.78,0,0,0-9-5c-6.37-.76-11.39,3.6-13,5a20.64,20.64,0,0,0-2,2l-36,57h12l4-7h27v7Zm-42-18,15-26a1.92,1.92,0,0,1,2-1c.77.28.93,1.47,1,2a4.1,4.1,0,0,1,0,1l1,24Z" transform="translate(-7.11 -1110.95)"/><path class="cls-1" d="M1144.11,1445.47h-19l-14,51a17.35,17.35,0,0,0-1,3c-.48,2.07-1.07,4.56,0,7a8.39,8.39,0,0,0,4,4h26l1-11h-11Z" transform="translate(-7.11 -1110.95)"/><path class="cls-1" d="M1215.11,1468.45c-1-10-7.87-16-9-17a26.26,26.26,0,0,0-9-5h-36l-17,64h34c.47,0,1.16,0,2,0,7.51-.35,12.89-4.64,17-8a51.26,51.26,0,0,0,13-16C1213.19,1480.45,1215.79,1475.41,1215.11,1468.45Zm-21,3a46.34,46.34,0,0,1-3,12,57.62,57.62,0,0,1-5,10c-2.51,4.32-4.39,6.74-7,7a5.56,5.56,0,0,1-1,0h-9l12-42c1.31-.55,6.61-2.62,10,0a6.22,6.22,0,0,1,1,1C1193,1460.49,1195,1463.41,1194.11,1471.45Z" transform="translate(-7.11 -1110.95)"/></g><path class="cls-1" d="M1724.12,1181a171.23,171.23,0,0,0-56,8c-21.44,6.85-35.92,16.25-54,28a321,321,0,0,0-46,36c-11.23,10.65-24.18,23.09-36,42a231.26,231.26,0,0,0-12,22,190.68,190.68,0,0,0-11,27,119.26,119.26,0,0,0-4,15c-1.51,8-1.74,14.43-2,23-.1,3.08-.21,8.53,0,16,.3,11,.68,24.87,4,42,2,10.27,2.64,9.36,4,18,1.49,9.47,1.7,16.88,2,29,.27,11.08.41,16.62,0,23-.65,10-1.22,18.88-5,30a79.07,79.07,0,0,1-11,22c-1.93,2.65-1.82,2.11-8,10-7.18,9.17-7.42,10-11,14-4.21,4.68-6.42,6.34-6,7,.31.49,2,.34,16-6,7.91-3.59,14-6.55,17-8,10.05-4.9,15.07-7.34,18-9a176.17,176.17,0,0,0,18-12c11.6-8.56,20.21-14.91,30-25a171.56,171.56,0,0,0,22-28c10.73-17.08,15.72-32,19-42,4.16-12.66,2.56-11.59,9-33,5.59-18.61,9.47-28.29,11-32,5-12,7.42-18.08,12-25a104.33,104.33,0,0,1,27-27c13.17-9.2,29.42-16.31,31-14,.62.9-1.25,3.27-5,8-4.54,5.73-7.61,8.28-11,12-4.18,4.58-6.53,8.38-10,14a99.65,99.65,0,0,0-10,20,116.45,116.45,0,0,0-4,15,137.31,137.31,0,0,0-3,17c-.63,6.29-.34,9.84,0,19,.67,18.12,1,27.19,0,32-1.92,9.17-5.64,15.54-10,23a113.35,113.35,0,0,1-17,22c-2.16,2.18-4.32,4.2-15,13-8.3,6.84-15.46,12.59-21,17,2.16,0,5.27.07,9,0a277.81,277.81,0,0,0,39-4c54.21-9.8,91-32,91-32,15.75-9.51,32-19.51,47-39a132.32,132.32,0,0,0,24-48c3.7-14.35,4.8-29.54,6-46s.78-24.38,5-37a100,100,0,0,1,12-24,121.27,121.27,0,0,1,28-30c-3.8.61-9,1.55-15,3a157.68,157.68,0,0,0-28,9,142.77,142.77,0,0,0-25,14c-6.39,4.48-12.45,8.74-19,16-8,8.85-10.91,15.76-13,15s-1.49-8.31,0-14a43.31,43.31,0,0,1,11-19c13.94-14.34,28.81-24.24,41-33,13.57-9.76,22.83-16.41,34-27,8.86-8.4,18.7-17.86,28-33a135.84,135.84,0,0,0,15-34c3.64-13.13,4.2-23.35,5-38a295.27,295.27,0,0,0,0-32c-1.17,1.83-2.92,4.6-5,8-7.53,12.3-8.92,15.78-12,20-4.66,6.38-9.6,9.58-18,15-20.55,13.26-41.8,18.92-51,21-6.52,1.47-13,2.51-23,6-1.45.5-5.4,1.91-17,7-11,4.8-16.5,7.24-24,11a338.74,338.74,0,0,0-30,17c-9.34,5.94-15.91,10.78-23,16-8.33,6.13-14.7,10.82-23,18-7.06,6.1-11.61,10.64-20,19s-9.93,10.42-11,12c-1.67,2.47-4.08,6.49-9,14-2.89,4.41-4.19,6.28-5,6-1.48-.51-.22-7.75,0-9a56.11,56.11,0,0,1,5-15,152,152,0,0,1,10-18,149.68,149.68,0,0,1,12-16c4.19-4.87,8.18-8.65,16-16,9.36-8.81,14-13.22,20-18a245.62,245.62,0,0,1,21-15c6.52-4.18,12.33-7.49,17-10Z" transform="translate(-7.11 -1110.95)"/></svg>